<svg width="512" height="512" xmlns="http://www.w3.org/2000/svg">

 <g>
  <title>background</title>
  <rect fill="none" id="canvas_background" height="402" width="582" y="-1" x="-1"/>
 </g>
 <g>
  <title>Layer 1</title>
  <rect id="svg_5" height="513" width="509" y="-0.5" x="1.5" fill-opacity="null" stroke-opacity="null" stroke-width="null" stroke="null" fill="#f5e6fe"/>
  <path id="svg_2" fill="#4a317d" d="m202.65625,202.67188c0,11.77734 -9.55078,21.32812 -21.32812,21.32812s-21.32813,-9.55078 -21.32813,-21.32812s9.55078,-21.32813 21.32813,-21.32813s21.32812,9.55078 21.32812,21.32813zm0,0"/>
  <path id="svg_3" fill="#4a317d" d="m229.32813,314.67188c0,-41.58204 29.90234,-76.25782 69.32812,-83.77735l0,-70.89453c0,-17.64844 -14.35156,-32 -32,-32l-106.65625,0c-17.64844,0 -32,14.35156 -32,32l0,149.32813c0,17.64843 14.35156,32 32,32l73.66406,0c-2.78515,-8.39844 -4.33593,-17.34375 -4.33593,-26.65625zm-50.76954,-56.75c-7.03906,-7.04297 -19.42187,-7.04297 -26.46093,0l-2.76953,2.76562l0,-100.6875c0,-5.88672 4.78515,-10.67187 10.67187,-10.67187l106.67188,0c5.88671,0 10.67187,4.78515 10.67187,10.67187l0,68.6875l-8.11328,-8.11328c-7.29297,-7.29297 -19.16797,-7.29297 -26.46094,0l-50.76953,50.78516l-13.44141,-13.4375zm0,0"/>
  <path id="svg_4" fill="#864fff" d="m314.67188,244.32813c-38.22266,0 -69.32813,31.10546 -69.32813,69.32812s31.08984,69.34375 69.32813,69.34375s69.32812,-31.10547 69.32812,-69.32812s-31.10547,-69.34375 -69.32812,-69.34375zm29.32812,80l-18.67187,0l0,18.67187c0,5.88672 -4.76954,10.67188 -10.67188,10.67188s-10.65625,-4.76954 -10.65625,-10.67188l0,-18.67187l-18.67187,0c-5.88672,0 -10.67188,-4.76954 -10.67188,-10.67188s4.78516,-10.65625 10.67188,-10.65625l18.67187,0l0,-18.67187c0,-5.88672 4.76953,-10.67188 10.67188,-10.67188s10.67187,4.76953 10.67187,10.67188l0,18.67187l18.65625,0c5.88672,0 10.67188,4.76953 10.67188,10.67188s-4.76954,10.65625 -10.67188,10.65625zm0,0"/>
 </g>
</svg>