<svg id="Layer_1" enable-background="new 0 0 256 256" height="512" viewBox="0 0 256 256" width="512" xmlns="http://www.w3.org/2000/svg"><path d="m48.041 26.131c-.974 11.564-13.024 13.39-13.024 13.39 10.347.486 12.925 14.059 12.925 14.059.221-9.677 13.321-14.202 13.321-14.202-9.813-.588-13.222-13.247-13.222-13.247z" fill="#d5de58"/><path d="m61.352 37.88c-8.604-.515-11.831-12.024-11.863-12.141-.191-.703-.865-1.167-1.583-1.102-.725.066-1.298.642-1.359 1.367-.86 10.215-11.313 11.964-11.754 12.032-.763.116-1.313.791-1.273 1.561.04.771.657 1.385 1.428 1.421 9.028.425 11.498 12.719 11.522 12.843.137.712.759 1.218 1.472 1.218.042 0 .084-.002.126-.005.764-.064 1.357-.693 1.375-1.46.195-8.51 12.192-12.778 12.313-12.82.675-.234 1.092-.914.994-1.622-.1-.709-.684-1.25-1.398-1.292zm-13.565 10.346c-1.356-3.131-3.708-6.907-7.586-8.877 2.931-1.404 6.409-3.913 8.202-8.272 1.551 3.071 4.199 6.88 8.334 8.723-3.009 1.638-6.924 4.404-8.95 8.426z" fill="#3a312a"/><path d="m26.343 43.111c-.689 8.179-9.212 9.471-9.212 9.471 7.318.344 9.142 9.944 9.142 9.944.156-6.844 9.422-10.045 9.422-10.045-6.942-.416-9.352-9.37-9.352-9.37z" fill="#d5de58"/><path d="m35.784 50.983c-5.766-.345-7.972-8.186-7.994-8.265-.19-.702-.857-1.167-1.582-1.102-.726.065-1.299.643-1.36 1.368-.579 6.87-7.647 8.066-7.942 8.113-.763.116-1.313.791-1.273 1.561.04.771.657 1.385 1.427 1.421 6.035.284 7.724 8.645 7.739 8.727.135.713.759 1.22 1.473 1.22.041 0 .083-.002.125-.005.765-.063 1.358-.693 1.376-1.461.13-5.709 8.332-8.634 8.413-8.662.677-.234 1.094-.913.996-1.622-.099-.709-.683-1.251-1.398-1.293zm-9.584 6.795c-.924-1.885-2.341-3.947-4.447-5.279 1.856-1.042 3.697-2.63 4.871-4.917 1.057 1.874 2.654 3.955 4.942 5.224-1.851 1.1-3.99 2.74-5.366 4.972z" fill="#3a312a"/><path d="m26.343 16.454c-.689 8.179-9.212 9.471-9.212 9.471 7.318.344 9.142 9.944 9.142 9.944.156-6.844 9.422-10.045 9.422-10.045-6.942-.416-9.352-9.37-9.352-9.37z" fill="#d5de58"/><path d="m35.784 24.326c-5.766-.345-7.972-8.186-7.994-8.265-.19-.702-.856-1.16-1.582-1.102-.726.065-1.299.643-1.36 1.368-.579 6.87-7.647 8.066-7.942 8.113-.763.116-1.313.791-1.273 1.561.04.771.657 1.385 1.428 1.421 6.035.284 7.723 8.645 7.739 8.727.135.713.759 1.22 1.472 1.22.042 0 .083-.002.125-.005.765-.063 1.358-.693 1.376-1.461.13-5.709 8.332-8.634 8.413-8.662.677-.234 1.094-.913.996-1.622-.099-.709-.683-1.251-1.398-1.293zm-9.584 6.795c-.924-1.886-2.34-3.947-4.447-5.28 1.856-1.041 3.697-2.63 4.871-4.916 1.057 1.874 2.654 3.955 4.942 5.224-1.851 1.1-3.99 2.74-5.366 4.972z" fill="#3a312a"/><path d="m16.5 98.497v125.667c0 8.495 6.887 15.382 15.382 15.382h192.236c8.495 0 15.382-6.887 15.382-15.382v-125.667z" fill="#fae6ca"/><path d="m239.5 96.997h-223c-.829 0-1.5.672-1.5 1.5v35.783c0 .828.671 1.5 1.5 1.5s1.5-.672 1.5-1.5v-34.283h220v124.167c0 7.654-6.228 13.882-13.882 13.882h-192.236c-7.654 0-13.882-6.228-13.882-13.882v-76.622c0-.828-.671-1.5-1.5-1.5s-1.5.672-1.5 1.5v76.622c0 9.309 7.573 16.882 16.882 16.882h192.236c9.309 0 16.882-7.573 16.882-16.882v-125.667c0-.828-.672-1.5-1.5-1.5z" fill="#3a312a"/><path d="m224.118 68.83h-192.236c-8.495 0-15.382 6.887-15.382 15.382v14.284h223v-14.284c0-8.495-6.887-15.382-15.382-15.382z" fill="#87796f"/><path d="m224.118 67.33h-31.251c-.828 0-1.5.672-1.5 1.5s.672 1.5 1.5 1.5h31.251c7.654 0 13.882 6.228 13.882 13.882v12.785h-220v-12.785c0-7.654 6.227-13.882 13.882-13.882h148.178c.828 0 1.5-.672 1.5-1.5s-.672-1.5-1.5-1.5h-148.178c-9.309 0-16.882 7.573-16.882 16.882v14.285c0 .828.671 1.5 1.5 1.5h223c.828 0 1.5-.672 1.5-1.5v-14.285c0-9.309-7.573-16.882-16.882-16.882z" fill="#3a312a"/><circle cx="37" cy="83.83" fill="#ef6d7a" r="6.75"/><path d="m37 75.58c-4.549 0-8.25 3.701-8.25 8.25s3.701 8.25 8.25 8.25 8.25-3.701 8.25-8.25-3.701-8.25-8.25-8.25zm0 13.5c-2.895 0-5.25-2.355-5.25-5.25s2.355-5.25 5.25-5.25 5.25 2.355 5.25 5.25-2.355 5.25-5.25 5.25z" fill="#3a312a"/><circle cx="65.25" cy="83.83" fill="#d6df58" r="6.75"/><path d="m65.25 75.58c-4.549 0-8.25 3.701-8.25 8.25s3.701 8.25 8.25 8.25 8.25-3.701 8.25-8.25-3.701-8.25-8.25-8.25zm0 13.5c-2.895 0-5.25-2.355-5.25-5.25s2.355-5.25 5.25-5.25 5.25 2.355 5.25 5.25-2.355 5.25-5.25 5.25z" fill="#3a312a"/><circle cx="93.5" cy="83.83" fill="#8ac5dc" r="6.75"/><path d="m93.5 75.58c-4.549 0-8.25 3.701-8.25 8.25s3.701 8.25 8.25 8.25 8.25-3.701 8.25-8.25-3.701-8.25-8.25-8.25zm0 13.5c-2.895 0-5.25-2.355-5.25-5.25s2.355-5.25 5.25-5.25 5.25 2.355 5.25 5.25-2.355 5.25-5.25 5.25z" fill="#3a312a"/><path d="m223 100.001v124.16c0 7.66-6.23 13.88-13.88 13.88h15c7.65 0 13.88-6.22 13.88-13.88v-124.16z" fill="#ddc9ac"/><path d="m224.12 70.331h-15c7.65 0 13.88 6.23 13.88 13.88v12.79h15v-12.79c0-7.65-6.23-13.88-13.88-13.88z" fill="#6a5c52"/><ellipse cx="178.772" cy="169.367" fill="#d5de58" rx="38.255" ry="38.255" transform="matrix(.987 -.16 .16 .987 -24.821 30.823)"/><path d="m178.772 129.611c-21.922 0-39.756 17.834-39.756 39.756 0 21.921 17.834 39.755 39.756 39.755 21.921 0 39.755-17.834 39.755-39.755 0-21.922-17.834-39.756-39.755-39.756zm0 76.511c-20.268 0-36.756-16.488-36.756-36.755 0-20.268 16.488-36.756 36.756-36.756 20.267 0 36.755 16.488 36.755 36.756 0 20.267-16.488 36.755-36.755 36.755z" fill="#3a312a"/><path d="m183.32 165.041c-5.572-2.097-7.866-3.473-7.866-5.637 0-1.834 1.377-3.67 5.638-3.67 4.719 0 7.734 1.507 9.438 2.229l1.901-7.406c-2.164-1.049-5.113-1.968-9.504-2.163v-5.769h-6.424v6.227c-7.013 1.376-11.077 5.899-11.077 11.668 0 6.358 4.785 9.636 11.798 11.995 4.851 1.639 6.948 3.212 6.948 5.702 0 2.623-2.557 4.064-6.292 4.064-4.261 0-8.128-1.376-10.881-2.883l-1.966 7.668c2.491 1.442 6.751 2.622 11.142 2.819v6.227h6.424v-6.686c7.538-1.31 11.668-6.292 11.668-12.126 0-5.901-3.147-9.506-10.947-12.259z" fill="#87796f"/><path d="m183.849 163.636c-4.962-1.867-6.894-3.054-6.894-4.232 0-1.888 2.593-2.17 4.138-2.17 3.994 0 6.624 1.143 8.363 1.898l.49.211c.402.172.858.158 1.25-.036s.68-.549.788-.972l1.901-7.406c.177-.691-.157-1.412-.799-1.723-2.496-1.21-5.34-1.94-8.659-2.221v-4.361c0-.828-.672-1.5-1.5-1.5h-6.424c-.828 0-1.5.672-1.5 1.5v5.028c-6.867 1.766-11.077 6.608-11.077 12.866 0 8.069 6.852 11.409 12.818 13.416 5.21 1.76 5.928 3.098 5.928 4.281 0 2.44-3.992 2.564-4.792 2.564-4.55 0-8.318-1.691-10.161-2.699-.406-.223-.892-.244-1.317-.061-.426.185-.741.555-.856 1.003l-1.967 7.668c-.167.651.12 1.334.701 1.671 2.564 1.484 6.446 2.564 10.395 2.922v4.825c0 .828.672 1.5 1.5 1.5h6.424c.828 0 1.5-.672 1.5-1.5v-5.462c7.131-1.688 11.668-6.82 11.668-13.35 0-6.625-3.574-10.714-11.918-13.66zm-1.507 24.31c-.719.125-1.243.748-1.243 1.478v5.186h-3.424v-4.727c0-.803-.631-1.463-1.433-1.498-3.418-.154-6.984-.958-9.461-2.104l1.21-4.717c2.339 1.055 5.834 2.216 9.889 2.216 4.733 0 7.792-2.185 7.792-5.564 0-3.895-3.829-5.726-7.969-7.124-7.555-2.541-10.777-5.703-10.777-10.573 0-5.172 3.688-8.984 9.866-10.196.703-.138 1.211-.755 1.211-1.472v-4.727h3.424v4.269c0 .803.632 1.463 1.434 1.498 3.011.135 5.577.634 7.803 1.523l-1.151 4.483c-1.89-.767-4.645-1.664-8.42-1.664-5.263 0-7.138 2.671-7.138 5.17 0 3.441 3.83 5.156 8.867 7.051 8.254 2.915 9.945 6.443 9.945 10.844 0 5.451-3.995 9.531-10.425 10.648z" fill="#3a312a"/><path d="m131.444 169.375-34.332-23.687-.005 14.413-61.131-.008-.006 18.531 61.132.008-.005 14.413z" fill="#8ac5dc"/><path d="m132.295 168.14-34.331-23.686c-.46-.317-1.056-.354-1.549-.094-.493.259-.803.771-.803 1.328l-.004 12.913-59.632-.009c-.828 0-1.5.671-1.5 1.5l-.006 18.531c0 .397.158.779.439 1.061.281.281.663.439 1.061.439l59.631.008-.004 12.913c0 .557.309 1.068.802 1.328.219.115.459.172.698.172.299 0 .596-.089.851-.265l34.347-23.671c.405-.28.648-.742.648-1.235s-.242-.953-.648-1.233zm-33.697 22.048.003-11.557c0-.397-.158-.779-.439-1.061-.281-.281-.663-.439-1.061-.439l-59.631-.008.005-15.531 59.632.009c.828 0 1.5-.671 1.5-1.5l.003-11.557 30.19 20.828z" fill="#3a312a"/></svg>